<svg width="23" height="23" viewBox="0 0 23 23" fill="none" xmlns="http://www.w3.org/2000/svg">
<circle cx="11.5" cy="11.5" r="11.5" fill="white"/>
<path d="M11 5C7.15 5 4 8.15 4 12C4 15.85 7.15 19 11 19C12.925 19 14.71 18.2475 15.97 16.97L14.71 15.71C13.765 16.655 12.4525 17.25 10.9825 17.25C8.0775 17.25 5.7325 14.905 5.7325 12C5.7325 9.095 8.0775 6.75 10.9825 6.75C12.435 6.75 13.695 7.38 14.64 8.3425L12.7325 10.25H17.9825V5L15.9 7.0825C14.64 5.8225 12.9075 5 10.9825 5H11Z" fill="#3AA34B"/>
</svg>
