<svg width="207" height="35" viewBox="0 0 207 35" fill="none" xmlns="http://www.w3.org/2000/svg">
<path d="M19.2 2.88V7.52H11.96C12.3333 8.56 12.8933 9.52 13.64 10.4C14.3867 11.28 15.1467 12.04 15.92 12.68C16.8 13.4267 17.7467 14.1067 18.76 14.72V19.64C17.5867 19.2667 16.48 18.6933 15.44 17.92C14.4 17.12 13.48 16.32 12.68 15.52C11.7467 14.5867 10.88 13.5733 10.08 12.48C9.41333 13.7333 8.54667 14.8133 7.48 15.72C6.41333 16.6267 5.37333 17.3733 4.36 17.96C3.16 18.6533 1.92 19.2267 0.64 19.68V15.04C1.78667 14.48 2.78667 13.8667 3.64 13.2C4.49333 12.5067 5.21333 11.8267 5.8 11.16C6.38667 10.4667 6.85333 9.81333 7.2 9.2C7.54667 8.56 7.81333 8 8 7.52H0.2V2.88H19.2ZM24.72 0.879998H29.72V20.4H24.72V13.6H19.68V8.96H24.72V0.879998ZM6.84 22.28H30.6V34.28H6.84V22.28ZM26.2 29.96V26.6H11.2V29.96H26.2ZM63.7325 20.44V0.879998H59.0925V20.44H63.7325ZM42.3325 2.56L47.8525 2.6C47.9325 3.34667 48.1192 4.16 48.4125 5.04C48.7058 5.89333 49.0525 6.77333 49.4525 7.68C49.8525 8.56 50.2925 9.45333 50.7725 10.36C51.2792 11.24 51.7858 12.0933 52.2925 12.92C53.4658 14.84 54.7592 16.7867 56.1725 18.76H50.1325C49.7592 18.28 49.2792 17.5733 48.6925 16.64C48.1058 15.7067 47.5458 14.7733 47.0125 13.84C46.3725 12.7733 45.7058 11.6133 45.0125 10.36C44.3458 11.6933 43.5858 13.08 42.7325 14.52C41.9058 15.9333 40.9725 17.3467 39.9325 18.76H33.0125C34.5058 17.32 35.7992 15.7467 36.8925 14.04C38.0125 12.3333 38.9458 10.7067 39.6925 9.16C40.4392 7.58667 41.0258 6.2 41.4525 5C41.8792 3.8 42.1725 2.98667 42.3325 2.56ZM40.2525 22.28H63.7325V34.48H40.2525V22.28ZM59.6125 30.24V26.48H44.8525V30.24H59.6125ZM94.9775 0.839999V34.52H88.9775V24.28C87.9908 25.16 86.9108 25.9067 85.7375 26.52C84.5642 27.1333 83.3508 27.6533 82.0975 28.08C80.8442 28.48 79.5775 28.8 78.2975 29.04C77.0175 29.28 75.7908 29.4533 74.6175 29.56C71.8442 29.8533 69.0175 29.88 66.1375 29.64V24.12C67.6042 24.4133 69.1242 24.56 70.6975 24.56C72.2975 24.5333 73.8708 24.4133 75.4175 24.2C76.9908 23.9867 78.4975 23.72 79.9375 23.4C81.4042 23.0533 82.7242 22.7067 83.8975 22.36C85.0975 22.0133 86.1242 21.6933 86.9775 21.4C87.8575 21.08 88.4975 20.84 88.8975 20.68V0.839999H94.9775ZM78.3375 1.72C79.1642 1.72 79.9108 1.86667 80.5775 2.16C81.2442 2.42666 81.8175 2.81333 82.2975 3.32C82.7775 3.82667 83.1375 4.41333 83.3775 5.08C83.6442 5.74667 83.7775 6.45333 83.7775 7.2V12.64C83.7775 14.32 83.2575 15.6533 82.2175 16.64C81.1775 17.6 79.7375 18.08 77.8975 18.08H73.0975C72.3775 18.08 71.6842 17.96 71.0175 17.72C70.3508 17.48 69.7508 17.1467 69.2175 16.72C68.7108 16.2667 68.2975 15.7333 67.9775 15.12C67.6842 14.48 67.5375 13.7867 67.5375 13.04V7.2C67.5375 6.45333 67.6708 5.74667 67.9375 5.08C68.2308 4.41333 68.6175 3.82667 69.0975 3.32C69.6042 2.81333 70.1908 2.42666 70.8575 2.16C71.5508 1.86667 72.2975 1.72 73.0975 1.72H78.3375ZM78.9375 8.24C78.9375 7.6 78.7108 7.06667 78.2575 6.64C77.8308 6.18667 77.2842 5.96 76.6175 5.96H74.8975C74.2308 5.96 73.6442 6.18667 73.1375 6.64C72.6308 7.06667 72.3775 7.6 72.3775 8.24V11.56C72.3775 12.2267 72.6308 12.7867 73.1375 13.24C73.6442 13.6667 74.2308 13.88 74.8975 13.88H76.6175C77.2842 13.88 77.8308 13.6667 78.2575 13.24C78.7108 12.7867 78.9375 12.2267 78.9375 11.56V8.24ZM135.424 1.24H140.024V34.12H135.424V17.2H131.944L132.024 34.12H127.224V1.24H131.944V12.12H135.424V1.24ZM125.464 7.2V3H107.544V7.2H113.744C113.77 7.6 113.784 8.18667 113.784 8.96C113.81 9.73333 113.77 10.6 113.664 11.56C113.584 12.52 113.424 13.5333 113.184 14.6C112.97 15.6667 112.624 16.68 112.144 17.64C111.69 18.6 111.09 19.4667 110.344 20.24C109.624 21.0133 108.717 21.5867 107.624 21.96V26.52C108.93 26.36 110.17 25.9867 111.344 25.4C112.33 24.92 113.317 24.2 114.304 23.24C115.29 22.2533 116.024 20.9333 116.504 19.28C116.744 20.1067 117.05 20.8533 117.424 21.52C117.797 22.16 118.21 22.7333 118.664 23.24C119.144 23.72 119.637 24.1467 120.144 24.52C120.65 24.8667 121.157 25.16 121.664 25.4C122.837 25.9867 124.077 26.36 125.384 26.52V21.96C124.29 21.5867 123.37 21.0133 122.624 20.24C121.904 19.4667 121.304 18.6 120.824 17.64C120.344 16.68 119.984 15.6667 119.744 14.6C119.504 13.5333 119.33 12.52 119.224 11.56C119.144 10.6 119.104 9.73333 119.104 8.96C119.104 8.18667 119.117 7.6 119.144 7.2H125.464ZM154.147 2.2H159.347V18.2H142.427V2.2H147.587V6.6H154.147V2.2ZM147.587 14.12H154.147V10.84H147.587V14.12ZM173.187 7.88V12.6H168.587V18.84H163.547V0.799999H168.587V7.88H173.187ZM144.827 34.92V26.08H162.987V24.24H144.827V21H168.547V29.64H149.907V31.16H168.547V34.92H144.827ZM192.351 3.28V7C192.377 8.89333 192.164 10.64 191.711 12.24C191.284 13.8133 190.804 15.1733 190.271 16.32C189.631 17.68 188.911 18.8933 188.111 19.96H182.591C183.524 18.68 184.271 17.44 184.831 16.24C185.391 15.04 185.817 13.9067 186.111 12.84C186.404 11.7733 186.591 10.8 186.671 9.92C186.751 9.04 186.791 8.29333 186.791 7.68H175.591V3.28H192.351ZM199.471 0.879998H205.071V22.48H199.471V16.96H193.911V12.56H199.471V9.6H193.911V5.2H199.471V0.879998ZM206.071 33.68H182.391V22.36H186.991V28.88H206.071V33.68Z" fill="#3AA34B"/>
</svg>
