<svg width="207" height="35" viewBox="0 0 207 35" fill="none" xmlns="http://www.w3.org/2000/svg">
<path d="M19.5594 2.88V7.52H12.3194C12.6927 8.56 13.2527 9.52 13.9994 10.4C14.746 11.28 15.506 12.04 16.2794 12.68C17.1594 13.4267 18.106 14.1067 19.1194 14.72V19.64C17.946 19.2667 16.8394 18.6933 15.7994 17.92C14.7594 17.12 13.8394 16.32 13.0394 15.52C12.106 14.5867 11.2394 13.5733 10.4394 12.48C9.77271 13.7333 8.90604 14.8133 7.83938 15.72C6.77271 16.6267 5.73271 17.3733 4.71938 17.96C3.51938 18.6533 2.27938 19.2267 0.999375 19.68V15.04C2.14604 14.48 3.14604 13.8667 3.99938 13.2C4.85271 12.5067 5.57271 11.8267 6.15938 11.16C6.74604 10.4667 7.21271 9.81333 7.55938 9.2C7.90604 8.56 8.17271 8 8.35938 7.52H0.559375V2.88H19.5594ZM25.0794 0.879998H30.0794V20.4H25.0794V13.6H20.0394V8.96H25.0794V0.879998ZM7.19938 22.28H30.9594V34.28H7.19938V22.28ZM26.5594 29.96V26.6H11.5594V29.96H26.5594ZM64.0919 20.44V0.879998H59.4519V20.44H64.0919ZM42.6919 2.56L48.2119 2.6C48.2919 3.34667 48.4785 4.16 48.7719 5.04C49.0652 5.89333 49.4119 6.77333 49.8119 7.68C50.2119 8.56 50.6519 9.45333 51.1319 10.36C51.6385 11.24 52.1452 12.0933 52.6519 12.92C53.8252 14.84 55.1185 16.7867 56.5319 18.76H50.4919C50.1185 18.28 49.6385 17.5733 49.0519 16.64C48.4652 15.7067 47.9052 14.7733 47.3719 13.84C46.7319 12.7733 46.0652 11.6133 45.3719 10.36C44.7052 11.6933 43.9452 13.08 43.0919 14.52C42.2652 15.9333 41.3319 17.3467 40.2919 18.76H33.3719C34.8652 17.32 36.1585 15.7467 37.2519 14.04C38.3719 12.3333 39.3052 10.7067 40.0519 9.16C40.7985 7.58667 41.3852 6.2 41.8119 5C42.2385 3.8 42.5319 2.98667 42.6919 2.56ZM40.6119 22.28H64.0919V34.48H40.6119V22.28ZM59.9719 30.24V26.48H45.2119V30.24H59.9719ZM95.3369 0.839999V34.52H89.3369V24.28C88.3502 25.16 87.2702 25.9067 86.0969 26.52C84.9235 27.1333 83.7102 27.6533 82.4569 28.08C81.2035 28.48 79.9369 28.8 78.6569 29.04C77.3769 29.28 76.1502 29.4533 74.9769 29.56C72.2035 29.8533 69.3769 29.88 66.4969 29.64V24.12C67.9635 24.4133 69.4835 24.56 71.0569 24.56C72.6569 24.5333 74.2302 24.4133 75.7769 24.2C77.3502 23.9867 78.8569 23.72 80.2969 23.4C81.7635 23.0533 83.0835 22.7067 84.2569 22.36C85.4569 22.0133 86.4835 21.6933 87.3369 21.4C88.2169 21.08 88.8569 20.84 89.2569 20.68V0.839999H95.3369ZM78.6969 1.72C79.5235 1.72 80.2702 1.86667 80.9369 2.16C81.6035 2.42666 82.1769 2.81333 82.6569 3.32C83.1369 3.82667 83.4969 4.41333 83.7369 5.08C84.0035 5.74667 84.1369 6.45333 84.1369 7.2V12.64C84.1369 14.32 83.6169 15.6533 82.5769 16.64C81.5369 17.6 80.0969 18.08 78.2569 18.08H73.4569C72.7369 18.08 72.0435 17.96 71.3769 17.72C70.7102 17.48 70.1102 17.1467 69.5769 16.72C69.0702 16.2667 68.6569 15.7333 68.3369 15.12C68.0435 14.48 67.8969 13.7867 67.8969 13.04V7.2C67.8969 6.45333 68.0302 5.74667 68.2969 5.08C68.5902 4.41333 68.9769 3.82667 69.4569 3.32C69.9635 2.81333 70.5502 2.42666 71.2169 2.16C71.9102 1.86667 72.6569 1.72 73.4569 1.72H78.6969ZM79.2969 8.24C79.2969 7.6 79.0702 7.06667 78.6169 6.64C78.1902 6.18667 77.6435 5.96 76.9769 5.96H75.2569C74.5902 5.96 74.0035 6.18667 73.4969 6.64C72.9902 7.06667 72.7369 7.6 72.7369 8.24V11.56C72.7369 12.2267 72.9902 12.7867 73.4969 13.24C74.0035 13.6667 74.5902 13.88 75.2569 13.88H76.9769C77.6435 13.88 78.1902 13.6667 78.6169 13.24C79.0702 12.7867 79.2969 12.2267 79.2969 11.56V8.24ZM135.783 1.24H140.383V34.12H135.783V17.2H132.303L132.383 34.12H127.583V1.24H132.303V12.12H135.783V1.24ZM125.823 7.2V3H107.903V7.2H114.103C114.13 7.6 114.143 8.18667 114.143 8.96C114.17 9.73333 114.13 10.6 114.023 11.56C113.943 12.52 113.783 13.5333 113.543 14.6C113.33 15.6667 112.983 16.68 112.503 17.64C112.05 18.6 111.45 19.4667 110.703 20.24C109.983 21.0133 109.076 21.5867 107.983 21.96V26.52C109.29 26.36 110.53 25.9867 111.703 25.4C112.69 24.92 113.676 24.2 114.663 23.24C115.65 22.2533 116.383 20.9333 116.863 19.28C117.103 20.1067 117.41 20.8533 117.783 21.52C118.156 22.16 118.57 22.7333 119.023 23.24C119.503 23.72 119.996 24.1467 120.503 24.52C121.01 24.8667 121.516 25.16 122.023 25.4C123.196 25.9867 124.436 26.36 125.743 26.52V21.96C124.65 21.5867 123.73 21.0133 122.983 20.24C122.263 19.4667 121.663 18.6 121.183 17.64C120.703 16.68 120.343 15.6667 120.103 14.6C119.863 13.5333 119.69 12.52 119.583 11.56C119.503 10.6 119.463 9.73333 119.463 8.96C119.463 8.18667 119.476 7.6 119.503 7.2H125.823ZM154.506 2.2H159.706V18.2H142.786V2.2H147.946V6.6H154.506V2.2ZM147.946 14.12H154.506V10.84H147.946V14.12ZM173.546 7.88V12.6H168.946V18.84H163.906V0.799999H168.946V7.88H173.546ZM145.186 34.92V26.08H163.346V24.24H145.186V21H168.906V29.64H150.266V31.16H168.906V34.92H145.186ZM192.71 3.28V7C192.737 8.89333 192.523 10.64 192.07 12.24C191.643 13.8133 191.163 15.1733 190.63 16.32C189.99 17.68 189.27 18.8933 188.47 19.96H182.95C183.883 18.68 184.63 17.44 185.19 16.24C185.75 15.04 186.177 13.9067 186.47 12.84C186.763 11.7733 186.95 10.8 187.03 9.92C187.11 9.04 187.15 8.29333 187.15 7.68H175.95V3.28H192.71ZM199.83 0.879998H205.43V22.48H199.83V16.96H194.27V12.56H199.83V9.6H194.27V5.2H199.83V0.879998ZM206.43 33.68H182.75V22.36H187.35V28.88H206.43V33.68Z" fill="white"/>
</svg>
